Coordinates
version=1
nRows=23
nColumns=30
inDegrees=yes

Units are S.I. units (second, meters, Newtons, ...)
Angles are in degrees.

endheader
time	floatyaw	floatroll	floatpitch	floatx	floaty	floatz	pro_sup_l	deviation_l	flexion_l	cmc_flexion_l	cmc_abduction_l	mp_flexion_l	ip_flexion_l	2mcp_flexion_l	2mcp_abduction_l	2pm_flexion_l	2md_flexion_l	3mcp_flexion_l	3mcp_abduction_l	3pm_flexion_l	3md_flexion_l	4mcp_flexion_l	4mcp_abduction_l	4pm_flexion_l	4md_flexion_l	5mcp_flexion_l	5mcp_abduction_l	5pm_flexion_l	5md_flexion_l
-0.995000	-160.147433	-5.066637	-73.570646	0.078599	-0.180360	-0.020748	98.422899	0.069175	-0.891849	15.280930	0.381268	-24.990500	-40.608083	30.215431	6.602740	41.687722	29.066937	23.783634	3.901109	43.259938	28.747446	13.325873	-4.393957	51.187507	35.185398	-0.060476	-7.266251	61.438656	41.852570
-0.985000	-160.147433	-5.066637	-73.570646	0.078601	-0.180362	-0.020747	98.427741	0.071568	-0.894431	15.281554	0.383334	-24.996104	-40.626252	30.206634	6.607080	41.707495	29.074759	23.781627	3.902703	43.268499	28.748461	13.328164	-4.394066	51.192952	35.190325	-0.053200	-7.270972	61.457524	41.867221
-0.975000	-160.147433	-5.066637	-73.570646	0.078605	-0.180360	-0.020746	98.430180	0.072917	-0.893537	15.272790	0.383610	-24.990012	-40.633011	30.198308	6.610094	41.721089	29.077357	23.776495	3.905838	43.269178	28.742601	13.327007	-4.393617	51.195762	35.193052	-0.046450	-7.277270	61.467442	41.873203
-0.965000	-160.147433	-5.066637	-73.570646	0.078611	-0.180357	-0.020748	98.426043	0.070956	-0.890023	15.254443	0.381955	-24.974884	-40.624548	30.192761	6.610289	41.728327	29.078764	23.771313	3.909232	43.262424	28.732939	13.322645	-4.392266	51.195337	35.193752	-0.041983	-7.283237	61.466227	41.871570
-0.955000	-160.147433	-5.066637	-73.570646	0.078616	-0.180353	-0.020750	98.414715	0.065880	-0.884720	15.229635	0.377944	-24.955520	-40.601464	30.191191	6.606791	41.730856	29.083606	23.768652	3.911554	43.250693	28.723952	13.316861	-4.389852	51.190859	35.192843	-0.040942	-7.287545	61.456290	41.866126
-0.945000	-160.147433	-5.066637	-73.570646	0.078622	-0.180349	-0.020749	98.398514	0.059645	-0.878743	15.203490	0.372549	-24.937576	-40.568743	30.193732	6.600203	41.731155	29.094409	23.769241	3.912040	43.238658	28.719975	13.312151	-4.386585	51.182446	35.191155	-0.043630	-7.289574	61.443307	41.861731
-0.935000	-160.147433	-5.066637	-73.570646	0.078628	-0.180347	-0.020745	98.380509	0.054394	-0.873608	15.180913	0.369476	-24.926305	-40.534176	30.199963	6.592583	41.731451	29.110078	23.771505	3.910838	43.232234	28.723620	13.310401	-4.383091	51.171899	35.189875	-0.049871	-7.289267	61.433613	41.862482
-0.925000	-160.147433	-5.066637	-73.570646	0.078634	-0.180347	-0.020737	98.362694	0.051279	-0.870724	15.164578	0.374067	-24.925144	-40.505721	30.209510	6.586497	41.732724	29.126154	23.772502	3.908849	43.236253	28.734651	13.311843	-4.380223	51.162191	35.190013	-0.059270	-7.286922	61.431480	41.870150
-0.915000	-160.147433	-5.066637	-73.570646	0.078639	-0.180350	-0.020725	98.345710	0.050237	-0.870544	15.154141	0.389995	-24.934463	-40.488909	30.222324	6.583801	41.734164	29.136686	23.769868	3.907148	43.251965	28.749884	13.315004	-4.378693	51.156033	35.191738	-0.070957	-7.283098	61.437544	41.883362
-0.905000	-160.147433	-5.066637	-73.570646	0.078643	-0.180354	-0.020714	98.329794	0.050460	-0.872031	15.146976	0.416177	-24.951258	-40.485379	30.238470	6.584914	41.733371	29.136836	23.763461	3.906387	43.276036	28.764425	13.317696	-4.378779	51.154600	35.194146	-0.083133	-7.278600	61.449038	41.898018
-0.895000	-160.147433	-5.066637	-73.570646	0.078647	-0.180357	-0.020703	98.315779	0.050984	-0.872995	15.139878	0.446214	-24.970308	-40.493101	30.257552	6.588874	41.727363	29.125026	23.755472	3.906524	43.301834	28.773782	13.318348	-4.380283	51.157223	35.195706	-0.093154	-7.274432	61.461488	41.908914
-0.885000	-160.147433	-5.066637	-73.570646	0.078650	-0.180354	-0.020696	98.305249	0.051141	-0.871183	15.130712	0.470747	-24.986347	-40.507884	30.278188	6.593984	41.714086	29.103619	23.748992	3.907035	43.322281	28.775725	13.316744	-4.382708	51.162038	35.195086	-0.098414	-7.271651	61.470854	41.911894
-0.875000	-160.147433	-5.066637	-73.570646	0.078652	-0.180345	-0.020693	98.299810	0.050851	-0.865527	15.119217	0.481196	-24.996090	-40.525237	30.298007	6.598633	41.693841	29.077862	23.746238	3.907424	43.332502	28.770739	13.313768	-4.385473	51.167081	35.191793	-0.097575	-7.271205	61.475181	41.905574
-0.865000	-160.147433	-5.066637	-73.570646	0.078654	-0.180331	-0.020693	98.300165	0.050756	-0.856761	15.106850	0.472758	-24.999145	-40.541722	30.314291	6.601882	41.669833	29.053659	23.747648	3.907653	43.330878	28.760915	13.310499	-4.388084	51.171219	35.186308	-0.091303	-7.273775	61.475252	41.891894
-0.855000	-160.147433	-5.066637	-73.570646	0.078655	-0.180316	-0.020694	98.305558	0.051976	-0.847027	15.096020	0.445762	-24.997602	-40.555498	30.325006	6.603569	41.647374	29.035350	23.752142	3.908187	43.318566	28.748327	13.307414	-4.390243	51.174559	35.179795	-0.082015	-7.279603	61.474002	41.875302
-0.845000	-160.147433	-5.066637	-73.570646	0.078656	-0.180303	-0.020695	98.313632	0.055329	-0.838700	15.089068	0.405886	-24.994893	-40.566184	30.329648	6.603972	41.632066	29.024584	23.757886	3.909650	43.298616	28.734299	13.304159	-4.391927	51.178250	35.173736	-0.072800	-7.288296	61.474865	41.860994
-0.835000	-160.147433	-5.066637	-73.570646	0.078657	-0.180294	-0.020694	98.320623	0.060393	-0.833172	15.087238	0.363553	-24.994620	-40.574418	30.329441	6.603320	41.627833	29.020595	23.762847	3.912414	43.275386	28.719865	13.299853	-4.393365	51.183760	35.169631	-0.066293	-7.298777	61.479809	41.853050
-0.825000	-160.147433	-5.066637	-73.570646	0.078656	-0.180292	-0.020690	98.322108	0.065183	-0.830270	15.089961	0.331565	-24.999656	-40.581441	30.326746	6.601541	41.635585	29.021287	23.765081	3.916437	43.253773	28.706447	13.293638	-4.394866	51.191839	35.168576	-0.064119	-7.309479	61.488199	41.853233
-0.815000	-160.147433	-5.066637	-73.570646	0.078654	-0.180293	-0.020686	98.314561	0.066994	-0.828540	15.094855	0.320381	-25.011386	-40.588715	30.324080	6.598408	41.652877	29.024276	23.763150	3.921409	43.237717	28.695717	13.285292	-4.396549	51.201580	35.170680	-0.066854	-7.318791	61.497147	41.860731
-0.805000	-160.147433	-5.066637	-73.570646	0.078651	-0.180296	-0.020682	98.297292	0.064048	-0.826183	15.098559	0.332800	-25.029005	-40.597394	30.323453	6.593985	41.674556	29.027457	23.756907	3.926940	43.228595	28.688796	13.275841	-4.398166	51.210298	35.174697	-0.073948	-7.325578	61.503138	41.872727
-0.795000	-160.147433	-5.066637	-73.570646	0.078648	-0.180297	-0.020679	98.273630	0.056875	-0.822118	15.098094	0.361504	-25.049201	-40.607648	30.326369	6.589032	41.694183	29.029187	23.748220	3.932576	43.224848	28.685697	13.267888	-4.399229	51.214578	35.178384	-0.083333	-7.329572	61.503930	41.885422
-0.785000	-160.147433	-5.066637	-73.570646	0.078645	-0.180296	-0.020677	98.250274	0.048449	-0.816569	15.092170	0.391610	-25.066731	-40.618269	30.334077	6.585014	41.705886	29.028294	23.740795	3.937704	43.223258	28.685472	13.265125	-4.399370	51.211999	35.179505	-0.091257	-7.331372	61.499504	41.895061
-0.775000	-160.147433	-5.066637	-73.570646	0.078643	-0.180289	-0.020674	98.234761	0.042896	-0.810762	15.081830	0.407321	-25.075996	-40.627011	30.347292	6.583571	41.706081	29.024017	23.738686	3.941552	43.220863	28.686678	13.270779	-4.398663	51.202390	35.176823	-0.093206	-7.331931	61.491546	41.898647
